<?xml version="1.0" standalone="no"?>
<!DOCTYPE svg PUBLIC "-//W3C//DTD SVG 20010904//EN"
 "http://www.w3.org/TR/2001/REC-SVG-20010904/DTD/svg10.dtd">
<svg version="1.0" xmlns="http://www.w3.org/2000/svg"
 width="260.000000pt" height="260.000000pt" viewBox="0 0 260.000000 260.000000"
 preserveAspectRatio="xMidYMid meet">
<metadata>
Created by potrace 1.11, written by Peter Selinger 2001-2013
</metadata>
<g transform="translate(0.000000,260.000000) scale(0.100000,-0.100000)"
fill="#000000" stroke="none">
<path d="M1045 1680 c0 -165 -2 -300 -5 -300 -3 0 -18 19 -34 43 -109 162
-358 214 -554 116 -143 -71 -229 -210 -239 -387 -18 -299 180 -518 462 -511
150 4 267 65 350 183 l20 28 0 -103 0 -104 60 0 60 0 0 668 0 667 -60 0 -61 0
1 -300z m-249 -209 c50 -13 125 -62 160 -104 127 -149 112 -410 -30 -535 -72
-63 -163 -93 -264 -86 -158 10 -277 108 -317 261 -67 256 108 489 360 477 28
-1 68 -7 91 -13z"/>
<path d="M1740 1574 c-196 -53 -317 -233 -309 -463 9 -252 189 -431 434 -431
138 0 252 61 338 180 17 24 17 22 14 -101 -3 -115 -5 -130 -32 -183 -64 -127
-184 -189 -347 -180 -86 5 -161 31 -235 80 l-62 42 -27 -41 -27 -41 31 -26
c46 -38 149 -87 218 -102 287 -67 537 67 594 318 9 39 17 703 11 932 l-1 32
-60 0 -60 0 0 -101 0 -101 -40 51 c-101 128 -272 180 -440 135z m230 -99 c90
-19 175 -91 218 -183 24 -50 27 -69 27 -157 0 -88 -3 -107 -27 -159 -76 -160
-251 -230 -430 -170 -116 38 -206 168 -212 305 -12 251 182 417 424 364z"/>
</g>
</svg>
